<svg xmlns="http://www.w3.org/2000/svg" width="30" height="25" viewBox="0 0 30 25">
  <path id="envelope-solid" d="M29.432,72.255a.351.351,0,0,1,.568.306V85.875A2.982,2.982,0,0,1,27.188,89H2.813A2.982,2.982,0,0,1,0,85.875V72.568a.349.349,0,0,1,.568-.306c1.313,1.133,3.053,2.572,9.029,7.4,1.236,1,3.322,3.112,5.4,3.1,2.092.02,4.219-2.135,5.408-3.1C26.385,74.833,28.119,73.388,29.432,72.255ZM15,80.667c1.359.026,3.316-1.9,4.3-2.7,7.775-6.27,8.367-6.816,10.16-8.379A1.626,1.626,0,0,0,30,68.362V67.125A2.982,2.982,0,0,0,27.188,64H2.813A2.982,2.982,0,0,0,0,67.125v1.237a1.636,1.636,0,0,0,.539,1.23C2.332,71.148,2.924,71.7,10.7,77.971,11.684,78.766,13.641,80.693,15,80.667Z" transform="translate(0 -64)" fill="#78c1ff"/>
</svg>
